<svg width="383" height="81" viewBox="0 0 383 81" fill="none" xmlns="http://www.w3.org/2000/svg">
<g clip-path="url(#clip0_386_1541)">
<path d="M0 0H38.6721V38.5241H0V0Z" fill="#F24C1D"/>
<path d="M42.6267 0H81.2988V38.5241H42.6267C42.6267 25.6868 42.6267 12.8373 42.6267 0Z" fill="#7CB500"/>
<path d="M0 42.4636H38.6721V80.9877H0V42.4636Z" fill="#029EE8"/>
<path d="M42.6392 42.476H81.3112V81H42.6392C42.6392 68.1505 42.6392 55.301 42.6392 42.476Z" fill="#F7B302"/>
<path d="M350.106 15.3409C353.777 12.96 358.52 12.7391 362.648 13.8804C362.684 16.3227 362.648 18.7772 362.672 21.2318C360.701 20.3604 358.397 19.8081 356.327 20.655C354.689 21.3054 353.716 22.9868 353.445 24.6559C353.137 26.7913 353.334 28.9391 353.284 31.0745C357.486 31.0745 361.687 31.0745 365.875 31.0745C365.9 28.3622 365.851 25.6377 365.912 22.9254C368.771 22.1154 371.592 21.2072 374.438 20.3604C374.462 23.9441 374.413 27.5154 374.462 31.0991C377.296 31.0622 380.142 31.0991 382.988 31.0745V38.0454C380.142 37.9227 377.284 38.0209 374.438 38.0086C374.438 42.0095 374.438 46.0227 374.438 50.0236C374.487 52.245 374.314 54.4663 374.573 56.6754C374.733 57.9763 375.201 59.4245 376.433 60.0995C378.491 61.2409 381.103 60.75 382.988 59.4859V66.5181C380.536 67.5859 377.776 67.9172 375.115 67.7209C372.59 67.5368 369.966 66.6163 368.327 64.6159C366.417 62.3577 365.925 59.2895 365.9 56.43C365.875 50.2813 365.9 44.145 365.9 37.9963H353.297V66.9354H344.685C344.685 57.2891 344.685 47.655 344.685 38.0086C342.689 37.9718 340.694 38.0086 338.698 37.9841C338.698 35.7013 338.722 33.4063 338.698 31.1113C340.681 31.0622 342.677 31.0868 344.673 31.1113C344.821 28.0677 344.353 24.9259 345.264 21.9681C346.028 19.2927 347.753 16.8872 350.118 15.3654L350.106 15.3409Z" fill="white"/>
<path d="M165.727 15.844C167.464 15.5863 169.349 16.1754 170.494 17.5254C171.837 19.0104 172.096 21.3668 171.098 23.0972C169.989 25.0486 167.525 25.969 165.369 25.4904C163.127 25.0977 161.279 23.0236 161.378 20.7163C161.304 18.2863 163.349 16.114 165.739 15.8563L165.727 15.844Z" fill="white"/>
<path d="M99.7292 16.9118H112.259C116.152 26.7791 120.082 36.6218 123.987 46.4891C124.985 48.9559 125.909 51.4473 126.968 53.8895C131.983 41.5677 137.071 29.2827 142.048 16.9364C146.064 16.875 150.081 16.9364 154.097 16.9118C154.097 33.5904 154.097 50.2568 154.097 66.9354C151.202 66.9354 148.306 66.96 145.411 66.9109C145.436 54.6014 145.411 42.3041 145.411 29.9945C145.411 29.4423 145.411 28.89 145.362 28.3377C145.19 28.5954 145.042 28.8654 144.919 29.1354C139.941 41.7273 134.866 54.2945 129.925 66.8986C127.868 66.9723 125.798 66.8986 123.728 66.9354C118.591 54.3436 113.515 41.715 108.415 29.1109C108.279 28.8532 108.131 28.5954 107.984 28.35C107.873 33.7377 107.959 39.1377 107.934 44.5254V66.9232C105.199 66.9232 102.464 66.9232 99.7292 66.9232C99.7292 50.2568 99.7292 33.5782 99.7292 16.8995V16.9118Z" fill="white"/>
<path d="M189.418 31.05C193.57 29.8718 198.054 29.9209 202.218 31.0868C203.081 31.32 203.906 31.6514 204.67 32.1055C204.621 34.8423 204.67 37.5668 204.645 40.3036C201.873 38.1927 198.337 36.855 194.814 37.2968C192.005 37.5423 189.344 39.0027 187.656 41.2609C185.5 44.0591 184.995 47.7655 185.377 51.1896C185.66 53.865 186.769 56.5405 188.851 58.32C191.019 60.2346 194.062 60.9218 196.908 60.7132C199.717 60.3941 202.366 59.2159 204.645 57.5591C204.67 60.1486 204.645 62.7382 204.67 65.3277C201.159 67.4141 196.933 67.9541 192.904 67.7577C188.777 67.5368 184.675 65.9905 181.681 63.1064C178.429 59.9891 176.679 55.5586 176.47 51.1036C176.26 46.4768 177.197 41.6536 179.87 37.7877C182.1 34.4864 185.599 32.1546 189.406 31.0623L189.418 31.05Z" fill="white"/>
<path d="M283.505 30.4977C287.496 29.7981 291.66 30.3136 295.418 31.7372V39.6163C292.782 37.8122 289.566 36.8427 286.375 36.9654C284.761 37.0268 283 37.7018 282.26 39.2359C281.681 40.7454 282.076 42.7213 283.505 43.6295C285.944 45.2618 288.864 45.9491 291.389 47.3972C293.373 48.5141 295.319 49.9745 296.33 52.0731C298.227 56.0127 297.414 61.2041 294.087 64.1495C290.897 67.1195 286.314 67.9295 282.1 67.77C279.106 67.5859 276.1 66.9845 273.341 65.7695C273.341 63.0081 273.316 60.2345 273.341 57.4854C275.657 59.1545 278.33 60.3572 281.152 60.8481C283.123 61.1672 285.254 61.1918 287.09 60.2959C288.852 59.4245 289.159 56.9454 288.125 55.4236C287.151 54.2454 285.722 53.6072 284.367 52.9813C281.829 51.8522 279.168 50.895 276.938 49.1891C275.374 47.9741 274.179 46.2559 273.723 44.3291C273.033 41.4695 273.255 38.2541 274.905 35.775C276.815 32.8663 280.117 31.1236 283.48 30.5345L283.505 30.4977Z" fill="white"/>
<path d="M223.938 31.6268C226.316 30.2032 229.334 30.0804 231.934 30.9518C231.934 33.8236 231.934 36.6709 231.934 39.5427C230.233 38.4504 228.114 37.9841 226.106 38.1804C223.655 38.4627 221.72 40.3282 220.723 42.4636C219.638 44.7341 219.429 47.2991 219.491 49.7904V66.9354H211.002C211.002 54.9941 211.002 43.0404 211.002 31.0868C213.836 31.05 216.669 31.0622 219.503 31.0868C219.503 33.1363 219.503 35.1859 219.503 37.2477C220.427 35.0263 221.794 32.8541 223.963 31.6391L223.938 31.6268Z" fill="white"/>
<path d="M162.142 31.0868C165 31.0868 167.858 31.05 170.716 31.0868C170.692 43.0282 170.716 54.9818 170.716 66.9232H162.166C162.166 54.9818 162.166 43.0282 162.166 31.0745L162.142 31.0868Z" fill="white"/>
<path d="M267.612 39.4568C266.109 36.1431 263.411 33.3818 260.085 31.8845C256.253 30.1418 251.892 29.9086 247.752 30.4363C243.416 30.9886 239.19 33.0136 236.43 36.4622C233.917 39.5427 232.685 43.4945 232.451 47.4218C232.106 52.0486 232.882 56.9577 235.605 60.8113C237.921 64.1495 241.592 66.4322 245.559 67.279C248.861 67.9786 252.335 67.9786 255.637 67.279C259.518 66.4813 263.128 64.3581 265.53 61.204C267.883 58.234 269.041 54.5031 269.312 50.76C269.583 46.9309 269.201 42.9668 267.6 39.4445L267.612 39.4568ZM259.296 55.9145C258.483 57.7554 256.968 59.314 255.058 60.0504C252.828 60.8972 250.327 60.9463 248.036 60.3572C245.695 59.7436 243.724 58.0622 242.64 55.9145C241.247 53.1531 241.038 49.9622 241.334 46.9431C241.592 44.1818 242.553 41.359 244.66 39.4568C246.188 38.0331 248.27 37.3336 250.327 37.2231C252.914 37.0513 255.674 37.7754 257.534 39.6654C259.518 41.6168 260.294 44.4395 260.516 47.1395C260.664 50.0972 260.54 53.1654 259.308 55.9022L259.296 55.9145Z" fill="white"/>
<path d="M336.603 40.4754C335.273 36.9286 332.612 33.8358 329.199 32.1422C325.269 30.1663 320.711 29.884 316.411 30.4117C312.949 30.8536 309.537 32.179 306.9 34.4617C303.66 37.2354 301.775 41.3099 301.221 45.4827C300.691 49.6554 300.876 54.0367 302.576 57.9395C304.214 61.7686 307.442 64.8736 311.323 66.3954C315.154 67.8927 319.417 68.0645 323.446 67.4263C327.573 66.739 331.478 64.579 334.028 61.2531C336.751 57.8167 337.934 53.374 337.922 49.0417C337.983 46.1454 337.626 43.2122 336.579 40.4877L336.603 40.4754ZM328.829 52.6499C328.497 54.5399 327.844 56.4177 326.6 57.9149C325.355 59.4122 323.495 60.3327 321.561 60.6149C319.503 60.9217 317.323 60.7745 315.401 59.9522C313.319 59.0808 311.705 57.289 310.855 55.2149C309.832 52.7604 309.623 50.0358 309.832 47.4095C310.029 44.8567 310.756 42.2427 312.444 40.2667C313.996 38.4136 316.349 37.3949 318.739 37.2599C321.167 37.0881 323.766 37.6526 325.639 39.2849C327.363 40.7086 328.312 42.844 328.756 44.9917C329.248 47.5077 329.248 50.1217 328.829 52.6499Z" fill="white"/>
</g>
<defs>
<clipPath id="clip0_386_1541">
<rect width="383" height="81" fill="white"/>
</clipPath>
</defs>
</svg>
