<svg width="308" height="76" viewBox="0 0 308 76" fill="none" xmlns="http://www.w3.org/2000/svg">
<path d="M219.649 29.6005C215.115 29.6005 211.879 31.1535 210.29 34.0943L209.437 35.687V30.3671H202.058V62.7032H209.819V43.4654C209.819 38.8691 212.31 36.2322 216.65 36.2322C220.79 36.2322 223.162 38.7997 223.162 43.2738V62.7032H230.926V41.8859C230.926 34.1869 226.711 29.6005 219.649 29.6005ZM182.012 29.6005C172.854 29.6005 167.183 35.3302 167.183 44.5525V49.0927C167.183 57.9615 172.92 63.4698 182.157 63.4698C188.336 63.4698 192.666 61.1997 195.392 56.5307L190.58 53.7551C188.567 56.4481 185.35 58.1168 182.16 58.1168C177.484 58.1168 174.693 55.2222 174.693 50.3714V49.0861H196.354V43.7231C196.354 35.1319 190.729 29.6005 182.019 29.6005H182.012ZM189.292 43.8586H174.667V43.0821C174.667 37.7588 177.273 34.8213 182.006 34.8213C186.563 34.8213 189.285 37.7159 189.285 42.5666L189.292 43.8586ZM308 25.0438V18.8581H281.155V25.0438H290.567V56.5043H281.155V62.69H308V56.5043H298.585V25.0438H308ZM104.454 17.9659C92.4652 17.9659 85.0109 25.4568 85.0109 37.5209V44.0437C85.0109 56.1044 92.4619 63.5986 104.454 63.5986C116.446 63.5986 123.897 56.1044 123.897 44.0437V37.5209C123.894 25.4436 116.433 17.9659 104.454 17.9659ZM115.876 44.4897C115.876 52.4994 111.714 57.0924 104.454 57.0924C97.1941 57.0924 93.0353 52.4994 93.0353 44.4897V37.0715C93.0353 29.0619 97.2007 24.4689 104.457 24.4689C111.714 24.4689 115.879 29.0619 115.879 37.0715L115.876 44.4897ZM148.273 29.6005C144.2 29.6005 140.674 31.2923 138.835 34.1241L138.002 35.4128V30.3671H130.62V73.8288H138.384V58.087L139.214 59.3229C140.961 61.9201 144.372 63.4698 148.339 63.4698C155.032 63.4698 161.785 59.0849 161.785 49.2843V43.7859C161.785 36.7246 157.623 29.6005 148.273 29.6005ZM154.021 48.9043C154.021 54.1152 150.989 57.3535 146.112 57.3535C141.564 57.3535 138.39 53.9302 138.39 49.0332V44.1692C138.39 39.2127 141.59 35.7234 146.178 35.7234C151.019 35.7234 154.027 38.9583 154.027 44.1692L154.021 48.9043ZM252.38 18.8614L236.716 62.7032H244.602L247.601 53.3057H265.607L265.637 53.3982L268.603 62.7032H276.486L260.796 18.8581L252.38 18.8614ZM249.526 47.1233L256.591 24.9579L263.584 47.1233H249.526ZM69.8321 31.1006C70.6819 28.543 70.9768 25.8328 70.6972 23.1515C70.4176 20.4703 69.5698 17.8799 68.2108 15.5538C66.1932 12.0383 63.1154 9.25517 59.4202 7.60506C55.725 5.95495 51.6029 5.52289 47.6472 6.37108C45.8631 4.35358 43.6698 2.74153 41.214 1.64283C38.7582 0.544125 36.0967 -0.0158657 33.4076 0.000342031C29.3618 -0.00889381 25.4177 1.27071 22.1441 3.65458C18.8705 6.03844 16.4367 9.40334 15.1937 13.2639C12.5598 13.8057 10.0716 14.9051 7.89549 16.4887C5.71941 18.0723 3.90565 20.1036 2.57552 22.4466C0.547393 25.9564 -0.317819 30.0209 0.104412 34.055C0.526644 38.0892 2.21454 41.8851 4.92516 44.8962C4.07871 47.4516 3.7855 50.1587 4.06509 52.8367C4.34467 55.5148 5.19063 58.1022 6.54652 60.4265C8.56207 63.9488 11.6414 66.7381 15.3402 68.3921C19.0391 70.0461 23.1663 70.4792 27.1265 69.629C28.9091 71.6441 31.0998 73.2547 33.5525 74.3533C36.0052 75.4519 38.6634 76.0132 41.3496 75.9998C45.3955 76.009 49.3396 74.7294 52.6132 72.3455C55.8868 69.9617 58.3206 66.5968 59.5635 62.7362C62.197 62.1942 64.6846 61.0947 66.8601 59.5111C69.0356 57.9275 70.8488 55.8963 72.1785 53.5535C74.2118 50.0449 75.0803 45.9791 74.6586 41.9432C74.2368 37.9074 72.5466 34.1104 69.8321 31.1006ZM41.3496 71.0433C38.0271 71.0462 34.8095 69.8764 32.2608 67.739C32.3729 67.6762 32.5904 67.5671 32.7156 67.4845L47.8087 58.7479C48.1874 58.5322 48.5018 58.2192 48.7196 57.8411C48.9374 57.463 49.0507 57.0334 49.0478 56.5968V35.2575L55.4245 38.9484C55.4589 38.9648 55.4886 38.9898 55.5105 39.0211C55.5325 39.0523 55.546 39.0888 55.5497 39.1268V56.7884C55.5497 60.5662 54.0541 64.1895 51.3916 66.8623C48.729 69.5351 45.1172 71.0389 41.3496 71.0433ZM10.8372 57.978C9.17335 55.0949 8.57265 51.7172 9.14003 48.4351C9.25207 48.5045 9.4498 48.6235 9.58821 48.7028L24.6846 57.4427C25.0604 57.6634 25.4881 57.7797 25.9237 57.7797C26.3592 57.7797 26.7869 57.6634 27.1628 57.4427L45.581 46.7631V54.145C45.5844 54.1829 45.578 54.2211 45.5624 54.2558C45.5469 54.2905 45.5226 54.3207 45.492 54.3432L30.2341 63.1724C26.9717 65.0559 23.0975 65.565 19.4612 64.5882C15.8249 63.6113 12.7234 61.2281 10.8372 57.9615V57.978ZM6.88265 24.9348C8.53868 22.0473 11.1555 19.8364 14.2743 18.6896V36.6783C14.2721 37.1148 14.3857 37.5441 14.6034 37.9221C14.8211 38.3001 15.1352 38.6132 15.5134 38.8294L33.9349 49.4958L27.5352 53.1999C27.504 53.221 27.468 53.2338 27.4306 53.2373C27.3932 53.2408 27.3555 53.2347 27.321 53.2198L12.0664 44.3873C8.80693 42.4966 6.42897 39.3862 5.4546 35.739C4.48023 32.0919 4.9891 28.2061 6.86947 24.9348H6.88265ZM59.2801 37.1608L40.8586 26.4944L47.2287 22.8002C47.26 22.7794 47.2959 22.7667 47.3333 22.7633C47.3707 22.7598 47.4083 22.7657 47.4429 22.7803L62.6975 31.6128C65.034 32.9665 66.9375 34.9595 68.1853 37.3586C69.4331 39.7576 69.9735 42.4635 69.7432 45.1593C69.5129 47.8552 68.5215 50.4295 66.885 52.5809C65.2486 54.7322 63.0347 56.3717 60.5027 57.3072V39.3218C60.5077 38.8842 60.3961 38.4532 60.1794 38.0733C59.9628 37.6934 59.6489 37.3784 59.2702 37.1608H59.2801ZM65.6304 27.5782C65.5184 27.5088 65.3207 27.3899 65.1822 27.3106L50.0858 18.5706C49.71 18.3499 49.2823 18.2336 48.8468 18.2336C48.4112 18.2336 47.9835 18.3499 47.6077 18.5706L29.1862 29.2337V21.8551C29.1849 21.8171 29.1926 21.7794 29.2086 21.7449C29.2246 21.7105 29.2486 21.6803 29.2785 21.6569L44.533 12.8277C46.8704 11.4768 49.5431 10.8212 52.2385 10.9378C54.9339 11.0544 57.5404 11.9384 59.753 13.4862C61.9656 15.034 63.6928 17.1817 64.7325 19.6779C65.7722 22.1741 66.0814 24.9156 65.6238 27.5815L65.6304 27.5782ZM25.7095 40.7426L19.3295 37.0517C19.2967 37.0335 19.2687 37.0079 19.2475 36.977C19.2263 36.946 19.2127 36.9105 19.2076 36.8733V19.2117C19.2055 16.5047 19.9731 13.8533 21.4203 11.5682C22.8675 9.28301 24.9344 7.45888 27.3786 6.30958C29.8229 5.16028 32.5433 4.73343 35.2208 5.07908C37.8984 5.42473 40.4222 6.52855 42.4965 8.26115C42.3844 8.32393 42.1834 8.43297 42.0417 8.51558L26.9486 17.2522C26.5704 17.4684 26.2563 17.7816 26.0386 18.1596C25.8209 18.5376 25.7073 18.9668 25.7095 19.4033V40.7426ZM29.173 33.2517L37.3786 28.5001L45.581 33.2517V42.7484L37.3753 47.5L29.1697 42.7484L29.173 33.2517Z" fill="#E8EAEC"/>
</svg>
